<svg id="Capa_1" enable-background="new 0 0 512 512" height="512" viewBox="0 0 512 512" width="512" xmlns="http://www.w3.org/2000/svg"><g><g><path d="m325.319 457.596h-138.638c-5.522 0-10-4.478-10-10s4.478-10 10-10h138.639c5.522 0 10 4.478 10 10s-4.478 10-10.001 10z"/><g><path d="m365.532 422.404h-219.064c-5.522 0-10-4.478-10-10s4.478-10 10-10h219.064c5.522 0 10 4.478 10 10s-4.477 10-10 10z"/></g><path d="m296.013 306.778c11.519-10.732 18.734-26.028 18.734-42.977 0-32.394-26.354-58.747-58.747-58.747s-58.747 26.354-58.747 58.747c0 16.949 7.214 32.244 18.734 42.977-19.889 8.311-33.901 27.968-33.901 50.835v13.87c0 5.522 4.478 10 10 10h127.828c5.522 0 10-4.478 10-10v-13.87c0-22.867-14.012-42.524-33.901-50.835zm-40.013-81.723c21.365 0 38.747 17.382 38.747 38.747s-17.382 38.747-38.747 38.747-38.747-17.382-38.747-38.747 17.382-38.747 38.747-38.747zm53.914 136.428h-107.828v-3.87c0-19.335 15.729-35.064 35.064-35.064h37.699c19.335 0 35.064 15.729 35.064 35.064v3.87z"/><g><path d="m419.72 279.84c-4.176 0-8.004-2.695-9.405-6.631-1.377-3.871-.212-8.328 2.936-10.991 3.283-2.776 8.093-3.123 11.745-.864 3.502 2.166 5.342 6.406 4.534 10.446-.924 4.618-5.104 8.04-9.81 8.04z"/></g><path d="m419.724 234.818c5.522 0 10-4.478 10-10v-140.371c0-21.604-17.59-39.182-39.211-39.182h-80.333v-35.265c0-5.522-4.478-10-10-10h-88.36c-5.522 0-10 4.478-10 10v35.266h-80.333c-21.621 0-39.211 17.577-39.211 39.182v388.371c0 21.604 17.59 39.182 39.211 39.182h269.025c21.621 0 39.211-17.577 39.211-39.182v-157.588c0-5.522-4.478-10-10-10s-10 4.478-10 10v157.587c0 10.577-8.618 19.182-19.211 19.182h-269.025c-10.593 0-19.211-8.604-19.211-19.182v-388.371c0-10.577 8.618-19.182 19.211-19.182h80.333v26.679h-28.462c-5.522 0-10 4.478-10 10v74.597c0 5.522 4.478 10 10 10h165.283c5.522 0 10-4.478 10-10v-74.597c0-5.522-4.478-10-10-10h-28.461v-26.678h80.333c10.593 0 19.211 8.604 19.211 19.182v140.371c0 5.522 4.477 9.999 10 9.999zm-197.904-214.818h68.359v103.558h-68.359zm106.822 91.944v54.597h-145.284v-54.597h18.462v21.613c0 5.522 4.478 10 10 10h88.359c5.522 0 10-4.478 10-10v-21.613z"/></g></g></svg>